<svg xmlns="http://www.w3.org/2000/svg" viewBox="0 0 766 745" width="766" height="745">
  <defs>
    <filter id="glow" x="-30%" y="-30%" width="160%" height="160%">
      <feGaussianBlur in="SourceAlpha" stdDeviation="6" result="blur1"/>
      <feColorMatrix in="blur1" type="matrix"
        values="0 0 0 0 0.35
                0 0 0 0 0.95
                0 0 0 0 1
                0 0 0 0.9 0" result="glowColor"/>
      <feMerge>
        <feMergeNode in="glowColor"/>
        <feMergeNode in="SourceGraphic"/>
      </feMerge>
    </filter>
  </defs>
  <g filter="url(#glow)">
    <path d="M 329.2 229.9 L 326.7 228.1 L 324.3 226.4 L 321.8 224.8 L 319.2 223.2 L 316.7 221.6 L 314.1 220.1 L 311.5 218.6 L 308.8 217.2 L 306.2 215.8 L 303.5 214.5 L 300.8 213.2 L 298.1 211.9 L 295.3 210.7 L 292.6 209.5 L 289.8 208.4 L 287.0 207.3 L 284.2 206.3 L 281.4 205.3 L 278.6 204.4 L 275.7 203.5 L 272.9 202.6 L 270.0 201.9 L 267.1 201.1 L 264.2 200.4 L 261.3 199.7 L 258.4 199.1 L 255.5 198.6 L 252.6 198.1 L 249.6 197.6 L 246.7 197.2 L 243.8 196.8 L 240.8 196.5 L 237.9 196.2 L 234.9 196.0 L 232.0 195.9 L 229.0 195.8 L 226.1 195.7 L 223.1 195.7 L 220.2 195.7 L 217.2 195.8 L 214.3 196.0 L 211.3 196.2 L 208.4 196.4 L 205.5 196.7 L 202.5 197.1 L 199.6 197.5 L 196.7 198.0 L 193.8 198.5 L 190.9 199.1 L 188.1 199.7 L 185.2 200.4 L 182.4 201.1 L 179.5 201.9 L 176.7 202.8 L 173.9 203.7 L 171.1 204.7 L 168.3 205.7 L 165.5 206.7 L 162.8 207.9 L 160.1 209.1 L 157.4 210.3 L 154.7 211.6 L 152.0 212.9 L 149.4 214.3 L 146.8 215.7 L 144.2 217.2 L 141.6 218.8 L 139.0 220.3 L 136.5 222.0 L 134.0 223.6 L 131.6 225.4 L 129.1 227.1 L 126.7 228.9 L 124.3 230.8 L 122.0 232.6 L 119.7 234.6 L 117.4 236.5 L 115.1 238.5 L 112.9 240.6 L 110.7 242.7 L 108.6 244.8 L 106.4 246.9 L 104.4 249.1 L 102.3 251.3 L 100.3 253.6 L 98.4 255.9 L 96.4 258.2 L 94.6 260.6 L 92.7 263.0 L 90.9 265.4 L 89.2 267.8 L 87.5 270.3 L 85.8 272.8 L 84.2 275.3 L 82.6 277.8 L 81.1 280.4 L 79.6 283.0 L 78.2 285.6 L 76.8 288.3 L 75.5 290.9 L 74.2 293.6 L 73.0 296.3 L 71.8 299.1 L 70.7 301.8 L 69.6 304.6 L 68.6 307.4 L 67.6 310.2 L 66.7 313.0 L 65.9 315.8 L 65.1 318.6 L 64.4 321.5 L 63.7 324.4 L 63.1 327.2 L 62.6 330.1 L 62.1 333.0 L 61.6 335.9 L 61.2 338.9 L 60.9 341.8 L 60.6 344.7 L 60.4 347.6 L 60.2 350.6 L 60.1 353.5 L 60.1 356.5 L 60.0 359.4 L 60.1 362.4 L 60.2 365.3 L 60.3 368.3 L 60.5 371.3 L 60.7 374.2 L 61.0 377.2 L 61.4 380.1 L 61.7 383.1 L 62.2 386.0 L 62.6 388.9 L 63.2 391.9 L 63.7 394.8 L 64.3 397.7 L 65.0 400.6 L 65.7 403.5 L 66.4 406.4 L 67.2 409.3 L 68.0 412.1 L 68.9 415.0 L 69.8 417.8 L 70.8 420.6 L 71.8 423.4 L 72.8 426.2 L 73.9 429.0 L 75.0 431.8 L 76.1 434.5 L 77.3 437.2 L 78.5 439.9 L 79.8 442.6 L 81.1 445.3 L 82.4 447.9 L 83.7 450.5 L 85.1 453.1 L 86.6 455.6 L 88.0 458.2 L 89.5 460.7 L 91.1 463.2 L 92.6 465.6 L 94.2 468.1 L 95.8 470.5 L 97.5 472.8 L 99.1 475.2 L 100.6 477.6 L 102.0 480.0 L 103.1 482.5 L 104.0 485.2 L 104.4 487.9 L 104.5 490.8 L 104.1 493.9 L 103.4 497.1 L 102.5 500.1 L 101.6 502.8 L 100.9 505.1 L 100.4 506.7 L 100.4 507.6 L 100.9 507.7 L 101.6 507.1 L 102.6 505.8 L 103.7 503.9 L 104.8 501.4 L 105.9 498.5 L 106.9 495.2 L 107.8 491.6 L 108.4 488.0 L 108.8 484.3 L 108.9 480.7 L 108.8 477.3 L 108.5 474.2 L 108.1 471.4 L 107.9 468.9 L 107.8 466.9 L 107.9 465.5 L 108.5 464.6 L 109.5 464.3 L 110.8 464.7 L 112.3 465.5 L 114.0 466.9 L 115.5 468.6 L 116.9 470.7 L 118.0 473.1 L 118.9 475.7 L 119.6 478.6 L 120.0 481.6 L 120.2 484.8 L 120.2 488.1 L 120.1 491.5 L 119.8 494.9 L 119.3 498.3 L 118.7 501.7 L 118.0 505.0 L 117.2 508.2 L 116.3 511.2 L 115.5 514.0 L 114.7 516.3 L 114.2 518.2 L 114.0 519.4 L 114.1 519.8 L 114.7 519.4 L 115.8 518.2 L 117.1 516.3 L 118.6 514.0 L 120.2 511.2 L 121.6 508.3 L 122.9 505.4 L 123.9 502.5 L 124.6 499.6 L 125.1 496.8 L 125.4 494.0 L 125.5 491.2 L 125.3 488.5 L 125.0 485.7 L 124.6 483.0 L 124.0 480.4 L 123.3 477.7 L 122.4 475.1 L 121.5 472.4 L 120.5 469.8 L 119.4 467.2 L 118.2 464.6 L 117.0 462.0 L 115.8 459.4 L 114.5 456.8 L 113.2 454.2 L 111.8 451.6 L 110.5 449.0 L 109.1 446.4 L 107.6 443.8 L 106.2 441.3 L 104.8 438.7 L 103.4 436.0 L 102.0 433.4 L 100.5 430.8 L 99.2 428.2 L 97.8 425.5 L 96.4 422.9 L 95.1 420.2 L 93.8 417.6 L 92.6 414.9 L 91.4 412.2 L 90.2 409.4 L 89.1 406.7 L 88.1 404.0 L 87.1 401.2 L 86.2 398.4 L 85.4 395.6 L 84.7 392.7 L 84.0 389.9 L 83.4 387.0 L 82.8 384.1 L 82.4 381.2 L 82.0 378.3 L 81.7 375.4 L 81.4 372.5 L 81.3 369.5 L 81.2 366.6 L 81.1 363.6 L 81.1 360.7 L 81.2 357.7 L 81.4 354.7 L 81.6 351.8 L 81.9 348.8 L 82.3 345.9 L 82.7 342.9 L 83.2 339.9 L 83.7 337.0 L 84.3 334.1 L 85.0 331.1 L 85.7 328.2 L 86.5 325.3 L 87.3 322.4 L 88.2 319.5 L 89.2 316.7 L 90.2 313.8 L 91.3 311.0 L 92.4 308.2 L 93.6 305.4 L 94.8 302.6 L 96.1 299.9 L 97.4 297.2 L 98.8 294.5 L 100.3 291.8 L 101.8 289.2 L 103.3 286.6 L 104.9 284.0 L 106.6 281.5 L 108.3 279.0 L 110.0 276.5 L 111.8 274.1 L 113.7 271.7 L 115.5 269.3 L 117.5 267.0 L 119.4 264.8 L 121.5 262.5 L 123.5 260.4 L 125.6 258.3 L 127.8 256.2 L 129.9 254.1 L 132.2 252.2 L 134.4 250.2 L 136.7 248.4 L 139.1 246.6 L 141.5 244.8 L 143.9 243.1 L 146.3 241.4 L 148.8 239.8 L 151.3 238.3 L 153.9 236.8 L 156.5 235.4 L 159.1 234.0 L 161.7 232.7 L 164.4 231.4 L 167.0 230.2 L 169.8 229.0 L 172.5 227.9 L 175.2 226.8 L 178.0 225.8 L 180.8 224.9 L 183.6 224.0 L 186.5 223.2 L 189.3 222.4 L 192.2 221.7 L 195.0 221.0 L 197.9 220.4 L 200.8 219.9 L 203.7 219.4 L 206.7 219.0 L 209.6 218.6 L 212.5 218.3 L 215.5 218.0 L 218.4 217.8 L 221.4 217.7 L 224.3 217.6 L 227.3 217.6 L 230.2 217.6 L 233.2 217.7 L 236.1 217.8 L 239.1 218.0 L 242.0 218.3 L 245.0 218.6 L 247.9 219.0 L 250.8 219.4 L 253.7 219.9 L 256.7 220.5 L 259.5 221.1 L 262.4 221.7 L 265.3 222.5 L 268.2 223.3 L 271.0 224.1 L 273.8 225.0 L 276.6 226.0 L 279.4 227.0 L 282.2 228.1 L 284.9 229.3 L 287.6 230.5 L 290.3 231.8 L 293.0 233.1 L 295.6 234.5 L 298.3 236.0 L 300.8 237.5 L 303.4 239.1 L 306.0 240.8 L 308.5 242.5 L 310.9 244.3 L 313.4 246.1 L 315.8 248.1 L 318.2 250.1 L 320.6 252.1 L 322.9 254.3 L 325.2 256.5 L 327.5 258.7 L 329.7 260.9 L 332.0 263.0 L 334.3 265.1 L 336.5 267.0 L 338.8 268.8 L 341.2 270.4 L 343.5 271.7 L 345.9 272.8 L 348.4 273.6 L 350.9 274.0 L 353.5 274.1 L 356.0 273.8 L 358.3 273.3 L 360.3 272.3 L 361.9 271.1 L 363.0 269.7 L 363.6 267.9 L 363.4 266.0 L 362.6 263.8 L 361.4 261.5 L 359.8 259.1 L 358.0 256.7 L 356.0 254.3 L 354.0 252.0 L 352.0 249.7 L 349.8 247.5 L 347.7 245.3 L 345.5 243.2 L 343.3 241.2 L 341.0 239.2 L 338.7 237.2 L 336.4 235.3 L 334.0 233.4 L 331.6 231.6 L 329.2 229.9 Z" fill="#ffffff"/>
    <path d="M 679.4 172.5 L 678.0 170.9 L 676.3 169.6 L 674.3 168.6 L 672.0 167.9 L 669.5 167.5 L 666.8 167.4 L 664.0 167.6 L 661.0 168.0 L 658.0 168.7 L 655.0 169.6 L 652.0 170.6 L 649.0 171.9 L 646.1 173.4 L 643.3 175.0 L 640.6 176.8 L 637.9 178.6 L 635.3 180.5 L 632.7 182.4 L 630.1 184.3 L 627.6 186.2 L 625.1 188.0 L 622.5 189.8 L 620.0 191.4 L 617.4 192.8 L 614.8 194.0 L 612.2 195.1 L 609.5 196.0 L 606.8 196.7 L 604.0 197.3 L 601.3 197.8 L 598.5 198.1 L 595.7 198.3 L 592.8 198.4 L 590.0 198.4 L 587.1 198.4 L 584.2 198.2 L 581.3 198.0 L 578.4 197.8 L 575.4 197.5 L 572.5 197.2 L 569.5 196.9 L 566.5 196.6 L 563.6 196.4 L 560.6 196.1 L 557.6 195.9 L 554.6 195.7 L 551.6 195.6 L 548.7 195.5 L 545.7 195.5 L 542.7 195.5 L 539.7 195.6 L 536.8 195.8 L 533.8 196.0 L 530.8 196.3 L 527.9 196.6 L 524.9 197.0 L 522.0 197.4 L 519.1 197.9 L 516.2 198.5 L 513.3 199.1 L 510.3 199.7 L 507.5 200.4 L 504.6 201.2 L 501.7 202.0 L 498.9 202.8 L 496.0 203.7 L 493.2 204.6 L 490.4 205.6 L 487.6 206.6 L 484.8 207.7 L 482.0 208.8 L 479.2 210.0 L 476.5 211.2 L 473.8 212.4 L 471.1 213.7 L 468.4 215.1 L 465.8 216.4 L 463.1 217.9 L 460.5 219.3 L 457.9 220.8 L 455.3 222.3 L 452.8 223.9 L 450.2 225.5 L 447.7 227.1 L 445.3 228.8 L 442.8 230.5 L 440.4 232.3 L 438.0 234.0 L 435.6 235.8 L 433.2 237.7 L 430.9 239.6 L 428.6 241.5 L 426.4 243.4 L 424.1 245.4 L 421.9 247.4 L 419.8 249.4 L 417.6 251.4 L 415.5 253.5 L 413.4 255.6 L 411.3 257.7 L 409.2 259.9 L 407.2 262.0 L 405.1 264.2 L 403.1 266.5 L 401.1 268.7 L 399.2 270.9 L 397.2 273.2 L 395.3 275.5 L 393.4 277.8 L 391.5 280.1 L 389.6 282.5 L 387.7 284.8 L 385.9 287.2 L 384.0 289.6 L 382.2 292.0 L 380.4 294.4 L 378.5 296.8 L 376.7 299.2 L 374.9 301.6 L 373.2 304.1 L 371.4 306.5 L 369.6 309.0 L 367.8 311.4 L 366.1 313.9 L 364.3 316.4 L 362.6 318.8 L 360.8 321.3 L 359.1 323.8 L 357.3 326.3 L 355.6 328.7 L 353.8 331.2 L 352.1 333.7 L 350.3 336.1 L 348.6 338.6 L 346.8 341.1 L 345.1 343.5 L 343.3 346.0 L 341.6 348.4 L 339.8 350.9 L 338.0 353.3 L 336.2 355.7 L 334.4 358.1 L 332.6 360.5 L 330.8 362.9 L 329.0 365.3 L 327.2 367.6 L 325.3 370.0 L 323.5 372.3 L 321.6 374.6 L 319.7 376.9 L 317.8 379.2 L 315.9 381.5 L 314.0 383.7 L 312.1 385.9 L 310.1 388.2 L 308.1 390.3 L 306.1 392.5 L 304.1 394.6 L 302.1 396.7 L 300.0 398.8 L 297.9 400.9 L 295.8 402.9 L 293.7 404.9 L 291.6 406.9 L 289.4 408.9 L 287.2 410.8 L 285.0 412.7 L 282.7 414.6 L 280.4 416.4 L 278.1 418.2 L 275.8 419.9 L 273.4 421.7 L 271.0 423.4 L 268.6 425.0 L 266.1 426.6 L 263.6 428.2 L 261.1 429.8 L 258.5 431.3 L 255.9 432.7 L 253.3 434.1 L 250.6 435.5 L 248.0 436.9 L 245.2 438.1 L 242.5 439.4 L 239.7 440.5 L 236.9 441.7 L 234.0 442.7 L 231.2 443.7 L 228.3 444.6 L 225.4 445.5 L 222.5 446.3 L 219.6 447.0 L 216.7 447.6 L 213.7 448.1 L 210.8 448.6 L 207.8 449.0 L 204.9 449.3 L 201.9 449.5 L 199.0 449.5 L 196.0 449.5 L 193.1 449.4 L 190.1 449.2 L 187.2 448.9 L 184.2 448.5 L 181.3 448.0 L 178.4 447.4 L 175.5 446.7 L 172.6 445.9 L 169.7 445.0 L 166.8 444.1 L 164.0 443.0 L 161.1 441.9 L 158.3 440.8 L 155.5 439.5 L 152.6 438.2 L 149.8 436.9 L 147.1 435.5 L 144.3 434.0 L 141.6 432.5 L 138.8 430.9 L 136.1 429.3 L 133.4 427.7 L 130.7 426.0 L 128.1 424.3 L 125.5 422.5 L 122.9 420.8 L 120.5 419.2 L 118.2 417.7 L 116.1 416.3 L 114.2 415.0 L 112.6 414.0 L 111.3 413.3 L 110.3 412.8 L 109.7 412.7 L 109.6 412.9 L 109.8 413.5 L 110.6 414.6 L 111.7 415.9 L 113.1 417.6 L 114.9 419.4 L 116.9 421.5 L 119.1 423.7 L 121.6 425.9 L 124.1 428.2 L 126.7 430.4 L 129.4 432.5 L 132.1 434.6 L 134.8 436.5 L 137.5 438.3 L 140.2 440.0 L 143.0 441.7 L 145.8 443.2 L 148.6 444.6 L 151.4 446.0 L 154.2 447.2 L 157.1 448.3 L 159.9 449.4 L 162.8 450.4 L 165.6 451.3 L 168.5 452.0 L 171.4 452.8 L 174.3 453.4 L 177.2 453.9 L 180.1 454.4 L 183.0 454.8 L 186.0 455.1 L 188.9 455.3 L 191.8 455.5 L 194.7 455.6 L 197.7 455.6 L 200.6 455.5 L 203.5 455.4 L 206.5 455.2 L 209.4 454.9 L 212.3 454.6 L 215.2 454.2 L 218.1 453.7 L 221.0 453.2 L 223.9 452.6 L 226.8 451.9 L 229.6 451.2 L 232.5 450.4 L 235.3 449.6 L 238.1 448.7 L 241.0 447.7 L 243.7 446.7 L 246.5 445.6 L 249.3 444.4 L 252.0 443.2 L 254.7 442.0 L 257.4 440.7 L 260.0 439.3 L 262.7 437.9 L 265.3 436.5 L 267.8 434.9 L 270.4 433.4 L 272.9 431.8 L 275.4 430.1 L 277.9 428.4 L 280.3 426.6 L 282.7 424.8 L 285.0 423.0 L 287.3 421.1 L 289.6 419.2 L 291.8 417.2 L 294.0 415.2 L 296.2 413.1 L 298.3 411.0 L 300.4 408.9 L 302.4 406.7 L 304.4 404.5 L 306.3 402.2 L 308.2 400.0 L 310.1 398.1 L 311.9 396.8 L 313.7 396.4 L 315.6 397.3 L 317.4 399.5 L 319.4 402.3 L 321.3 404.2 L 323.4 404.2 L 325.6 402.0 L 327.7 398.9 L 329.8 395.9 L 331.8 393.0 L 333.8 390.3 L 335.7 387.8 L 337.6 385.3 L 339.5 382.9 L 341.4 380.6 L 343.2 378.3 L 345.0 376.0 L 346.8 373.8 L 348.6 371.5 L 350.4 369.2 L 352.2 366.9 L 354.0 364.6 L 355.8 362.3 L 357.6 359.9 L 359.4 357.6 L 361.1 355.2 L 362.9 352.9 L 364.7 350.5 L 366.5 348.1 L 368.3 345.8 L 370.1 343.4 L 371.8 341.0 L 373.6 338.6 L 375.4 336.2 L 377.2 333.8 L 379.0 331.4 L 380.8 329.0 L 382.6 326.6 L 384.4 324.2 L 386.3 321.8 L 388.1 319.4 L 389.9 317.0 L 391.8 314.6 L 393.6 312.2 L 395.5 309.9 L 397.4 307.5 L 399.2 305.1 L 401.1 302.8 L 403.0 300.5 L 404.9 298.1 L 406.9 295.8 L 408.8 293.5 L 410.8 291.2 L 412.7 289.0 L 414.7 286.7 L 416.7 284.5 L 418.7 282.3 L 420.8 280.1 L 422.8 277.9 L 424.9 275.7 L 426.9 273.6 L 429.0 271.5 L 431.2 269.4 L 433.3 267.3 L 435.5 265.3 L 437.7 263.3 L 439.9 261.3 L 442.1 259.4 L 444.3 257.4 L 446.6 255.5 L 448.9 253.7 L 451.2 251.9 L 453.6 250.1 L 456.0 248.3 L 458.4 246.6 L 460.8 244.9 L 463.2 243.2 L 465.7 241.6 L 468.2 240.1 L 470.8 238.5 L 473.3 237.0 L 475.9 235.6 L 478.6 234.2 L 481.2 232.8 L 483.9 231.5 L 486.6 230.2 L 489.4 229.0 L 492.2 227.8 L 495.0 226.7 L 497.9 225.6 L 500.7 224.6 L 503.6 223.6 L 506.5 222.7 L 509.5 221.9 L 512.4 221.1 L 515.4 220.4 L 518.3 219.7 L 521.3 219.1 L 524.3 218.6 L 527.3 218.1 L 530.3 217.7 L 533.3 217.4 L 536.2 217.1 L 539.2 217.0 L 542.2 216.9 L 545.1 216.9 L 548.1 216.9 L 551.0 217.1 L 553.9 217.3 L 556.8 217.6 L 559.7 218.0 L 562.5 218.4 L 565.4 218.9 L 568.2 219.4 L 571.0 219.9 L 573.8 220.3 L 576.7 220.8 L 579.5 221.2 L 582.3 221.5 L 585.1 221.8 L 588.0 222.0 L 590.8 222.1 L 593.7 222.0 L 596.5 221.9 L 599.4 221.6 L 602.3 221.1 L 605.2 220.5 L 608.2 219.6 L 611.2 218.6 L 614.2 217.3 L 617.2 215.9 L 620.3 214.1 L 623.3 212.3 L 626.3 210.3 L 629.3 208.3 L 632.2 206.3 L 635.0 204.5 L 637.6 202.8 L 640.1 201.3 L 642.5 200.1 L 644.6 199.3 L 646.5 198.9 L 648.1 199.0 L 649.5 199.6 L 650.6 200.7 L 651.4 202.2 L 652.0 204.0 L 652.4 206.2 L 652.6 208.6 L 652.6 211.3 L 652.4 214.1 L 652.1 217.0 L 651.5 220.0 L 650.9 223.0 L 650.1 226.0 L 649.3 229.0 L 648.5 232.1 L 647.8 235.1 L 647.0 238.1 L 646.4 241.0 L 646.0 243.9 L 645.7 246.8 L 645.7 249.6 L 645.9 252.4 L 646.4 255.0 L 647.3 257.6 L 648.4 260.1 L 649.7 262.5 L 651.2 264.9 L 652.9 267.3 L 654.7 269.7 L 656.6 272.0 L 658.5 274.4 L 660.5 276.7 L 662.3 279.1 L 664.2 281.6 L 665.9 284.1 L 667.6 286.6 L 669.2 289.2 L 670.8 291.7 L 672.3 294.4 L 673.8 297.0 L 675.1 299.7 L 676.5 302.4 L 677.7 305.2 L 678.9 307.9 L 680.0 310.7 L 681.1 313.5 L 682.1 316.3 L 683.0 319.2 L 683.9 322.1 L 684.7 325.0 L 685.5 327.9 L 686.1 330.8 L 686.8 333.7 L 687.3 336.7 L 687.8 339.6 L 688.3 342.6 L 688.6 345.6 L 688.9 348.6 L 689.2 351.6 L 689.3 354.5 L 689.5 357.5 L 689.5 360.5 L 689.5 363.5 L 689.4 366.5 L 689.3 369.5 L 689.1 372.5 L 688.8 375.5 L 688.5 378.5 L 688.1 381.4 L 687.6 384.4 L 687.1 387.4 L 686.5 390.3 L 685.9 393.2 L 685.2 396.1 L 684.4 399.0 L 683.6 401.9 L 682.7 404.7 L 681.7 407.6 L 680.7 410.4 L 679.6 413.2 L 678.4 416.0 L 677.2 418.7 L 676.0 421.5 L 674.7 424.2 L 673.3 426.8 L 672.0 429.5 L 670.5 432.1 L 669.1 434.8 L 667.6 437.3 L 666.0 439.9 L 664.4 442.4 L 662.8 445.0 L 661.2 447.4 L 659.6 449.9 L 657.9 452.3 L 656.2 454.7 L 654.5 457.1 L 652.7 459.5 L 651.0 461.8 L 649.2 464.1 L 647.5 466.4 L 645.7 468.6 L 644.0 470.8 L 642.4 472.8 L 640.9 474.7 L 639.7 476.4 L 638.7 477.8 L 638.1 478.9 L 637.8 479.7 L 638.0 480.0 L 638.7 479.9 L 640.0 479.4 L 641.8 478.3 L 644.3 476.7 L 647.1 474.7 L 650.2 472.6 L 653.4 470.4 L 656.5 468.4 L 659.4 466.6 L 661.8 465.2 L 663.7 464.3 L 664.9 464.1 L 665.2 464.8 L 664.7 466.2 L 663.5 468.3 L 661.9 470.8 L 659.9 473.6 L 657.7 476.6 L 655.4 479.8 L 653.1 482.8 L 651.1 485.6 L 649.3 488.1 L 648.1 490.1 L 647.5 491.4 L 647.6 492.1 L 648.4 492.0 L 649.7 491.4 L 651.5 490.3 L 653.6 488.7 L 656.1 486.8 L 658.7 484.7 L 661.4 482.4 L 664.1 480.0 L 666.6 477.5 L 669.1 475.1 L 671.5 472.6 L 673.7 470.2 L 675.8 467.7 L 677.9 465.2 L 679.8 462.8 L 681.7 460.3 L 683.4 457.8 L 685.1 455.3 L 686.7 452.7 L 688.2 450.2 L 689.7 447.7 L 691.0 445.1 L 692.3 442.5 L 693.6 439.9 L 694.8 437.3 L 695.9 434.7 L 697.0 432.0 L 698.0 429.3 L 699.0 426.6 L 700.0 423.9 L 700.9 421.2 L 701.8 418.4 L 702.7 415.6 L 703.5 412.8 L 704.3 409.9 L 705.1 407.1 L 705.8 404.2 L 706.5 401.3 L 707.1 398.4 L 707.7 395.5 L 708.3 392.5 L 708.8 389.6 L 709.3 386.6 L 709.7 383.7 L 710.1 380.7 L 710.4 377.7 L 710.7 374.7 L 711.0 371.7 L 711.2 368.7 L 711.3 365.7 L 711.4 362.7 L 711.5 359.7 L 711.5 356.7 L 711.4 353.7 L 711.3 350.7 L 711.1 347.7 L 710.9 344.7 L 710.6 341.7 L 710.2 338.7 L 709.8 335.7 L 709.4 332.8 L 708.8 329.8 L 708.2 326.9 L 707.6 324.0 L 706.9 321.1 L 706.1 318.2 L 705.2 315.3 L 704.3 312.5 L 703.3 309.6 L 702.3 306.8 L 701.1 304.0 L 699.9 301.3 L 698.6 298.5 L 697.3 295.8 L 695.9 293.1 L 694.4 290.4 L 692.8 287.8 L 691.2 285.2 L 689.6 282.6 L 687.9 280.0 L 686.3 277.4 L 684.6 274.9 L 683.0 272.3 L 681.4 269.8 L 679.8 267.3 L 678.3 264.7 L 676.8 262.2 L 675.5 259.7 L 674.2 257.1 L 673.0 254.6 L 672.0 252.0 L 671.0 249.5 L 670.2 246.9 L 669.6 244.3 L 669.1 241.7 L 668.9 239.0 L 668.8 236.4 L 668.9 233.7 L 669.2 230.9 L 669.6 228.2 L 670.2 225.4 L 670.9 222.6 L 671.7 219.7 L 672.6 216.7 L 673.5 213.8 L 674.5 210.7 L 675.5 207.7 L 676.5 204.5 L 677.5 201.3 L 678.4 198.0 L 679.3 194.7 L 680.1 191.4 L 680.7 188.2 L 681.1 185.1 L 681.3 182.1 L 681.3 179.4 L 681.0 176.8 L 680.4 174.5 L 679.4 172.5 Z" fill="#ffffff"/>
    <path d="M 300.8 295.5 L 299.3 293.6 L 297.6 291.7 L 295.9 289.8 L 294.0 288.0 L 292.0 286.2 L 289.9 284.5 L 287.7 282.8 L 285.5 281.1 L 283.1 279.5 L 280.7 277.9 L 278.2 276.4 L 275.6 274.9 L 273.0 273.5 L 270.3 272.2 L 267.6 270.9 L 264.8 269.7 L 262.0 268.6 L 259.1 267.5 L 256.2 266.6 L 253.3 265.7 L 250.4 264.9 L 247.4 264.1 L 244.4 263.5 L 241.5 263.0 L 238.5 262.5 L 235.5 262.2 L 232.5 262.0 L 229.6 261.8 L 226.6 261.8 L 223.7 261.8 L 220.7 262.0 L 217.8 262.2 L 214.9 262.5 L 212.0 263.0 L 209.1 263.5 L 206.3 264.0 L 203.5 264.7 L 200.6 265.5 L 197.9 266.3 L 195.1 267.2 L 192.4 268.2 L 189.7 269.3 L 187.0 270.4 L 184.3 271.7 L 181.7 273.0 L 179.2 274.3 L 176.6 275.8 L 174.1 277.3 L 171.7 278.9 L 169.2 280.5 L 166.9 282.2 L 164.5 284.0 L 162.2 285.8 L 160.0 287.7 L 157.8 289.7 L 155.7 291.7 L 153.6 293.8 L 151.6 295.9 L 149.7 298.1 L 147.8 300.3 L 145.9 302.6 L 144.2 305.0 L 142.5 307.4 L 140.8 309.9 L 139.3 312.4 L 137.8 314.9 L 136.4 317.6 L 135.0 320.2 L 133.8 322.9 L 132.6 325.7 L 131.5 328.5 L 130.5 331.3 L 129.6 334.2 L 128.8 337.1 L 128.0 340.1 L 127.4 343.1 L 126.8 346.1 L 126.4 349.1 L 126.0 352.2 L 125.7 355.2 L 125.6 358.2 L 125.5 361.1 L 125.5 364.1 L 125.7 367.0 L 125.9 369.8 L 126.3 372.5 L 126.7 375.2 L 127.3 377.7 L 128.0 380.1 L 128.7 382.2 L 129.5 383.9 L 130.4 385.3 L 131.3 386.1 L 132.2 386.5 L 133.2 386.2 L 134.2 385.3 L 135.2 383.6 L 136.2 381.2 L 137.3 378.6 L 138.7 377.1 L 140.5 378.2 L 142.8 382.2 L 145.1 386.6 L 146.8 389.4 L 148.0 390.7 L 148.9 390.6 L 149.4 389.6 L 149.6 388.0 L 149.7 385.9 L 149.6 383.6 L 149.5 381.1 L 149.3 378.5 L 149.1 375.7 L 148.9 372.9 L 148.6 369.9 L 148.4 366.9 L 148.2 363.8 L 148.1 360.7 L 148.0 357.6 L 148.1 354.5 L 148.2 351.4 L 148.6 348.3 L 149.0 345.3 L 149.6 342.4 L 150.3 339.5 L 151.2 336.6 L 152.2 333.9 L 153.3 331.1 L 154.5 328.5 L 155.9 325.9 L 157.3 323.3 L 158.9 320.8 L 160.5 318.4 L 162.3 316.1 L 164.1 313.8 L 166.0 311.6 L 168.0 309.4 L 170.1 307.4 L 172.3 305.4 L 174.5 303.5 L 176.8 301.6 L 179.2 299.8 L 181.6 298.2 L 184.1 296.6 L 186.6 295.0 L 189.2 293.6 L 191.8 292.3 L 194.4 291.0 L 197.1 289.8 L 199.8 288.8 L 202.6 287.8 L 205.4 286.9 L 208.2 286.1 L 211.0 285.5 L 213.9 284.9 L 216.7 284.4 L 219.6 284.1 L 222.5 283.8 L 225.4 283.7 L 228.3 283.6 L 231.3 283.7 L 234.2 283.9 L 237.1 284.3 L 240.0 284.7 L 242.9 285.3 L 245.8 286.0 L 248.7 286.9 L 251.6 287.8 L 254.5 288.9 L 257.3 290.2 L 260.2 291.6 L 263.0 293.1 L 265.7 294.6 L 268.4 296.3 L 271.1 297.9 L 273.6 299.5 L 276.1 301.1 L 278.5 302.6 L 280.8 303.9 L 282.9 305.1 L 284.9 306.1 L 286.8 306.8 L 288.5 307.3 L 290.1 307.4 L 291.5 307.1 L 292.8 306.1 L 294.0 304.3 L 295.5 302.3 L 297.6 300.8 L 300.0 299.7 L 301.7 298.7 L 302.0 297.3 L 300.8 295.5 Z" fill="#ffffff"/>
    <path d="M 639.3 338.9 L 637.7 337.2 L 635.7 335.7 L 633.2 334.4 L 630.2 333.2 L 627.1 332.5 L 624.6 332.5 L 622.9 333.1 L 621.8 334.2 L 621.1 335.8 L 620.8 337.8 L 620.8 340.0 L 620.9 342.4 L 621.1 345.0 L 621.4 347.8 L 621.8 350.7 L 622.1 353.6 L 622.5 356.7 L 622.8 359.8 L 623.1 362.9 L 623.3 366.0 L 623.4 369.2 L 623.3 372.2 L 623.1 375.3 L 622.7 378.3 L 622.2 381.2 L 621.5 384.1 L 620.7 386.9 L 619.8 389.7 L 618.8 392.4 L 617.7 395.1 L 616.4 397.7 L 615.0 400.3 L 613.6 402.8 L 612.0 405.3 L 610.3 407.7 L 608.6 410.0 L 606.7 412.3 L 604.8 414.5 L 602.8 416.6 L 600.7 418.7 L 598.5 420.7 L 596.3 422.7 L 594.0 424.5 L 591.7 426.3 L 589.3 428.1 L 586.9 429.7 L 584.4 431.3 L 581.8 432.8 L 579.3 434.2 L 576.6 435.5 L 574.0 436.7 L 571.3 437.8 L 568.5 438.8 L 565.8 439.7 L 563.0 440.5 L 560.1 441.2 L 557.3 441.8 L 554.4 442.2 L 551.4 442.5 L 548.5 442.7 L 545.6 442.7 L 542.6 442.6 L 539.6 442.3 L 536.6 441.9 L 533.6 441.4 L 530.5 440.7 L 527.5 439.8 L 524.5 438.8 L 521.5 437.7 L 518.5 436.5 L 515.7 435.3 L 512.9 434.2 L 510.2 433.1 L 507.7 432.1 L 505.3 431.2 L 503.1 430.5 L 501.2 430.1 L 499.5 429.9 L 498.2 429.9 L 497.4 430.3 L 497.4 430.9 L 498.2 431.9 L 500.0 433.2 L 502.6 434.7 L 505.6 436.3 L 509.0 438.0 L 512.3 439.6 L 515.5 441.0 L 518.6 442.3 L 521.6 443.5 L 524.5 444.6 L 527.4 445.5 L 530.2 446.3 L 532.9 447.0 L 535.6 447.5 L 538.3 447.9 L 540.9 448.2 L 543.5 448.4 L 546.1 448.4 L 548.7 448.3 L 551.3 448.1 L 554.0 447.7 L 556.6 447.2 L 559.3 446.5 L 562.1 445.7 L 564.9 444.8 L 567.7 443.7 L 570.6 442.5 L 573.6 441.2 L 576.7 439.8 L 579.7 438.6 L 582.7 437.6 L 585.5 436.9 L 588.2 436.8 L 590.6 437.4 L 592.6 438.5 L 593.8 440.2 L 593.9 442.3 L 592.7 444.6 L 590.6 446.9 L 588.4 449.1 L 586.4 451.0 L 584.9 452.6 L 584.0 453.7 L 583.9 454.3 L 584.9 454.2 L 586.9 453.5 L 589.6 452.4 L 592.6 451.0 L 595.7 449.4 L 598.7 447.8 L 601.5 446.1 L 604.2 444.4 L 606.8 442.7 L 609.3 440.9 L 611.7 439.0 L 614.0 437.1 L 616.1 435.2 L 618.2 433.2 L 620.2 431.1 L 622.0 429.0 L 623.8 426.8 L 625.5 424.6 L 627.1 422.3 L 628.7 419.9 L 630.2 417.5 L 631.6 415.1 L 632.9 412.6 L 634.2 410.0 L 635.4 407.3 L 636.6 404.6 L 637.8 401.8 L 638.8 399.0 L 639.9 396.0 L 640.9 393.1 L 641.8 390.1 L 642.7 387.1 L 643.5 384.0 L 644.2 381.0 L 644.8 377.9 L 645.3 374.8 L 645.8 371.8 L 646.1 368.8 L 646.3 365.9 L 646.4 363.0 L 646.4 360.1 L 646.2 357.3 L 645.9 354.6 L 645.4 352.0 L 644.8 349.5 L 644.1 347.1 L 643.2 344.9 L 642.1 342.7 L 640.8 340.7 L 639.3 338.9 Z" fill="#ffffff"/>
    <path d="M 648.0 302.0 L 647.9 301.3 L 647.0 300.1 L 645.3 298.5 L 643.2 296.6 L 640.6 294.5 L 637.8 292.3 L 634.8 290.3 L 631.8 288.4 L 628.9 286.7 L 626.2 285.3 L 623.5 284.1 L 620.9 283.1 L 618.3 282.1 L 615.7 281.1 L 613.0 280.1 L 610.3 279.1 L 607.5 278.0 L 604.7 277.0 L 601.9 275.9 L 599.0 274.9 L 596.1 274.0 L 593.2 273.1 L 590.3 272.3 L 587.3 271.6 L 584.3 271.0 L 581.3 270.5 L 578.3 270.2 L 575.3 270.0 L 572.3 269.9 L 569.3 270.0 L 566.3 270.1 L 563.3 270.4 L 560.3 270.8 L 557.3 271.3 L 554.3 271.8 L 551.4 272.4 L 548.4 273.1 L 545.5 273.9 L 542.5 274.7 L 539.6 275.5 L 536.7 276.4 L 533.8 277.3 L 530.9 278.2 L 528.1 279.2 L 525.3 280.1 L 522.5 281.0 L 519.7 281.9 L 517.0 282.8 L 514.3 283.7 L 511.6 284.5 L 508.9 285.3 L 506.3 286.0 L 503.8 286.7 L 501.2 287.3 L 498.7 287.8 L 496.3 288.4 L 493.8 288.9 L 491.4 289.4 L 489.1 289.9 L 486.8 290.4 L 484.5 291.0 L 482.3 291.6 L 480.0 292.3 L 477.9 293.1 L 475.7 294.1 L 473.5 295.2 L 471.4 296.5 L 469.3 298.0 L 467.1 299.7 L 465.0 301.5 L 462.9 303.5 L 460.8 305.6 L 458.8 307.8 L 456.7 310.1 L 454.7 312.4 L 452.7 314.8 L 450.7 317.3 L 448.7 319.7 L 446.7 322.2 L 444.8 324.7 L 442.8 327.1 L 440.9 329.5 L 439.0 331.9 L 437.1 334.4 L 435.3 336.8 L 433.4 339.2 L 431.6 341.5 L 429.7 343.9 L 427.9 346.3 L 426.1 348.7 L 424.3 351.1 L 422.5 353.4 L 420.7 355.8 L 419.0 358.2 L 417.2 360.5 L 415.4 362.9 L 413.7 365.3 L 411.9 367.7 L 410.2 370.0 L 408.4 372.4 L 406.7 374.8 L 405.0 377.2 L 403.2 379.5 L 401.5 381.9 L 399.7 384.3 L 398.0 386.7 L 396.2 389.1 L 394.5 391.5 L 392.7 394.0 L 390.9 396.4 L 389.2 398.8 L 387.4 401.2 L 385.6 403.6 L 383.8 406.0 L 382.0 408.5 L 380.2 410.9 L 378.4 413.3 L 376.5 415.7 L 374.7 418.0 L 372.9 420.4 L 371.0 422.8 L 369.1 425.2 L 367.2 427.5 L 365.3 429.8 L 363.4 432.2 L 361.5 434.5 L 359.5 436.8 L 357.6 439.0 L 355.6 441.3 L 353.6 443.5 L 351.6 445.8 L 349.5 448.0 L 347.5 450.1 L 345.4 452.3 L 343.3 454.4 L 341.2 456.5 L 339.0 458.6 L 336.9 460.7 L 334.7 462.7 L 332.5 464.7 L 330.2 466.7 L 328.0 468.6 L 325.7 470.5 L 323.4 472.4 L 321.0 474.2 L 318.7 476.0 L 316.3 477.8 L 313.8 479.5 L 311.4 481.2 L 308.9 482.9 L 306.4 484.5 L 303.8 486.1 L 301.2 487.6 L 298.6 489.1 L 296.0 490.5 L 293.3 491.9 L 290.6 493.3 L 287.8 494.6 L 285.1 495.9 L 282.3 497.1 L 279.5 498.3 L 276.7 499.5 L 274.0 500.7 L 271.4 501.8 L 268.8 503.0 L 266.3 504.2 L 264.0 505.4 L 262.0 506.4 L 260.5 507.4 L 259.5 508.0 L 259.4 508.4 L 259.9 508.5 L 261.2 508.3 L 262.9 507.9 L 265.2 507.2 L 267.9 506.4 L 270.9 505.5 L 274.1 504.4 L 277.4 503.2 L 280.8 502.1 L 284.2 500.8 L 287.4 499.6 L 290.5 498.5 L 293.3 497.4 L 295.9 496.3 L 298.4 495.2 L 300.7 494.1 L 303.0 493.0 L 305.2 491.8 L 307.4 490.5 L 309.5 489.2 L 311.8 487.7 L 314.1 486.1 L 316.4 484.4 L 319.0 482.5 L 321.6 480.4 L 324.4 478.3 L 327.1 476.1 L 329.9 473.9 L 332.7 471.8 L 335.4 469.8 L 337.9 468.0 L 340.3 466.4 L 342.5 465.1 L 344.4 464.2 L 346.1 463.6 L 347.4 463.5 L 348.4 463.9 L 349.0 464.7 L 349.2 465.8 L 349.0 467.2 L 348.4 468.8 L 347.3 470.7 L 345.7 472.7 L 343.6 474.8 L 341.1 476.9 L 338.4 479.2 L 335.5 481.4 L 332.7 483.6 L 329.9 485.8 L 327.3 487.9 L 324.9 490.0 L 322.7 491.9 L 320.6 493.8 L 318.6 495.7 L 316.6 497.5 L 314.7 499.2 L 312.7 500.8 L 310.6 502.4 L 308.4 503.9 L 306.0 505.4 L 303.5 506.8 L 300.7 508.1 L 297.7 509.4 L 294.6 510.7 L 291.3 511.9 L 288.0 513.0 L 284.7 514.2 L 281.5 515.2 L 278.4 516.3 L 275.5 517.3 L 272.9 518.3 L 270.5 519.3 L 268.4 520.2 L 266.8 521.1 L 265.6 522.1 L 264.9 523.0 L 264.8 523.8 L 265.2 524.5 L 266.2 524.9 L 267.8 525.1 L 269.9 524.9 L 272.2 524.4 L 274.8 523.7 L 277.5 522.8 L 280.3 521.7 L 283.2 520.5 L 286.1 519.2 L 289.0 517.9 L 291.9 516.5 L 294.7 515.1 L 297.5 513.6 L 300.3 512.2 L 303.0 510.7 L 305.7 509.2 L 308.4 507.6 L 311.0 506.1 L 313.6 504.5 L 316.2 502.8 L 318.8 501.2 L 321.3 499.5 L 323.8 497.8 L 326.3 496.1 L 328.7 494.3 L 331.1 492.5 L 333.5 490.7 L 335.9 488.9 L 338.2 487.1 L 340.5 485.2 L 342.8 483.3 L 345.1 481.4 L 347.3 479.5 L 349.5 477.5 L 351.7 475.5 L 353.9 473.5 L 356.0 471.5 L 358.2 469.5 L 360.3 467.4 L 362.4 465.3 L 364.5 463.2 L 366.5 461.1 L 368.5 459.0 L 370.6 456.8 L 372.6 454.6 L 374.5 452.4 L 376.5 450.2 L 378.5 448.0 L 380.4 445.7 L 382.3 443.5 L 384.2 441.2 L 386.1 438.9 L 388.0 436.6 L 389.8 434.3 L 391.7 432.0 L 393.5 429.6 L 395.4 427.2 L 397.2 424.9 L 399.0 422.5 L 400.8 420.1 L 402.5 417.6 L 404.3 415.2 L 406.1 412.8 L 407.8 410.3 L 409.6 407.9 L 411.3 405.4 L 413.0 402.9 L 414.8 400.4 L 416.5 397.9 L 418.2 395.4 L 419.9 392.9 L 421.7 390.4 L 423.4 387.9 L 425.1 385.4 L 426.8 382.9 L 428.5 380.4 L 430.3 377.9 L 432.0 375.4 L 433.7 373.0 L 435.5 370.5 L 437.2 368.0 L 439.0 365.6 L 440.8 363.1 L 442.5 360.7 L 444.3 358.2 L 446.1 355.8 L 447.9 353.4 L 449.8 351.0 L 451.6 348.6 L 453.5 346.3 L 455.3 344.0 L 457.2 341.6 L 459.1 339.3 L 461.0 337.1 L 463.0 334.8 L 464.9 332.6 L 466.9 330.4 L 468.9 328.2 L 471.0 326.1 L 473.0 323.9 L 475.1 321.8 L 477.2 319.8 L 479.3 317.8 L 481.5 315.8 L 483.7 313.8 L 485.9 311.9 L 488.2 310.0 L 490.4 308.1 L 492.7 306.3 L 495.1 304.5 L 497.5 302.8 L 499.9 301.1 L 502.3 299.4 L 504.8 297.8 L 507.3 296.2 L 509.9 294.7 L 512.5 293.2 L 515.1 291.8 L 517.8 290.4 L 520.5 289.1 L 523.2 287.8 L 525.9 286.6 L 528.7 285.5 L 531.5 284.4 L 534.3 283.4 L 537.2 282.4 L 540.0 281.6 L 542.9 280.8 L 545.8 280.1 L 548.7 279.4 L 551.7 278.8 L 554.6 278.3 L 557.6 277.9 L 560.5 277.6 L 563.5 277.4 L 566.5 277.3 L 569.4 277.2 L 572.4 277.3 L 575.4 277.4 L 578.4 277.6 L 581.4 278.0 L 584.4 278.4 L 587.3 279.0 L 590.3 279.6 L 593.3 280.3 L 596.2 281.1 L 599.1 281.9 L 602.1 282.9 L 605.0 283.8 L 607.9 284.9 L 610.7 286.0 L 613.6 287.1 L 616.4 288.3 L 619.2 289.5 L 622.0 290.7 L 624.7 291.9 L 627.4 293.2 L 630.2 294.5 L 632.9 295.8 L 635.6 297.1 L 638.4 298.4 L 641.1 299.7 L 643.6 300.8 L 645.8 301.6 L 647.3 302.1 L 648.0 302.0 Z" fill="#c8ffff" opacity="0.9"/>
  </g>
</svg>